HIERARCHY
ROOT hip
{
  OFFSET 0 0 0
  CHANNELS 6 Xposition Yposition Zposition Zrotation Yrotation Xrotation
  JOINT abdomen
  {
    OFFSET 0 20.6881 -0.73152
    CHANNELS 3 Zrotation Xrotation Yrotation
    JOINT chest
    {
      OFFSET 0 11.7043 -0.48768
      CHANNELS 3 Zrotation Xrotation Yrotation
      JOINT neck
      {
        OFFSET 0 22.1894 -2.19456
        CHANNELS 3 Zrotation Xrotation Yrotation
        JOINT head
        {
          OFFSET -0.24384 7.07133 1.2192
          CHANNELS 3 Zrotation Xrotation Yrotation
          JOINT leftEye
          {
            OFFSET 4.14528 8.04674 8.04672
            CHANNELS 3 Zrotation Xrotation Yrotation
            End Site
            {
              OFFSET 1 0 0
            }
          }
          JOINT rightEye
          {
            OFFSET -3.6576 8.04674 8.04672
            CHANNELS 3 Zrotation Xrotation Yrotation
            End Site
            {
              OFFSET 1 0 0
            }
          }
        }
      }
      JOINT rCollar
      {
        OFFSET -2.68224 19.2634 -4.8768
        CHANNELS 3 Zrotation Xrotation Yrotation
        JOINT rShldr
        {
          OFFSET -8.77824 -1.95073 1.46304
          CHANNELS 3 Zrotation Xrotation Yrotation
          JOINT rForeArm
          {
            OFFSET -28.1742 -1.7115 0.48768
            CHANNELS 3 Zrotation Xrotation Yrotation
            JOINT rHand
            {
              OFFSET -22.5879 0.773209 7.07136
              CHANNELS 3 Zrotation Xrotation Yrotation
              JOINT rThumb1
              {
                OFFSET -1.2192 -0.487915 3.41376
                CHANNELS 3 Zrotation Xrotation Yrotation
                JOINT rThumb2
                {
                  OFFSET -3.37035 -0.52449 3.41376
                  CHANNELS 3 Zrotation Xrotation Yrotation
                  End Site
                  {
                    OFFSET -1.78271 -1.18214 1.43049
                  }
                }
              }
              JOINT rIndex1
              {
                OFFSET -7.75947 0.938293 5.60832
                CHANNELS 3 Zrotation Xrotation Yrotation
                JOINT rIndex2
                {
                  OFFSET -2.54057 -0.884171 1.56538
                  CHANNELS 3 Zrotation Xrotation Yrotation
                  End Site
                  {
                    OFFSET -1.62519 -0.234802 1.16502
                  }
                }
              }
              JOINT rMid1
              {
                OFFSET -8.24714 1.18213 3.41376
                CHANNELS 3 Zrotation Xrotation Yrotation
                JOINT rMid2
                {
                  OFFSET -3.10165 -0.590103 1.0647
                  CHANNELS 3 Zrotation Xrotation Yrotation
                  End Site
                  {
                    OFFSET -2.48547 -0.328903 0.83742
                  }
                }
              }
              JOINT rRing1
              {
                OFFSET -8.82822 0.546677 1.51678
                CHANNELS 3 Zrotation Xrotation Yrotation
                JOINT rRing2
                {
                  OFFSET -2.60934 -0.819778 -0.0198488
                  CHANNELS 3 Zrotation Xrotation Yrotation
                  End Site
                  {
                    OFFSET -2.33842 -0.294052 0.168128
                  }
                }
              }
              JOINT rPinky1
              {
                OFFSET -8.27202 -0.0477905 -0.4584
                CHANNELS 3 Zrotation Xrotation Yrotation
                JOINT rPinky2
                {
                  OFFSET -1.82734 -0.647385 -0.700984
                  CHANNELS 3 Zrotation Xrotation Yrotation
                  End Site
                  {
                    OFFSET -1.69225 -0.51767 -0.607171
                  }
                }
              }
            }
          }
        }
      }
      JOINT lCollar
      {
        OFFSET 2.68224 19.2634 -4.8768
        CHANNELS 3 Zrotation Xrotation Yrotation
        JOINT lShldr
        {
          OFFSET 8.77824 -1.95073 1.46304
          CHANNELS 3 Zrotation Xrotation Yrotation
          JOINT lForeArm
          {
            OFFSET 28.1742 -1.7115 0.48768
            CHANNELS 3 Zrotation Xrotation Yrotation
            JOINT lHand
            {
              OFFSET 22.5879 0.773209 7.07136
              CHANNELS 3 Zrotation Xrotation Yrotation
              JOINT lThumb1
              {
                OFFSET 1.2192 -0.487915 3.41376
                CHANNELS 3 Zrotation Xrotation Yrotation
                JOINT lThumb2
                {
                  OFFSET 3.37035 -0.52449 3.41376
                  CHANNELS 3 Zrotation Xrotation Yrotation
                  End Site
                  {
                    OFFSET 1.78271 -1.18214 1.43049
                  }
                }
              }
              JOINT lIndex1
              {
                OFFSET 7.75947 0.938293 5.60832
                CHANNELS 3 Zrotation Xrotation Yrotation
                JOINT lIndex2
                {
                  OFFSET 2.54057 -0.884171 1.56538
                  CHANNELS 3 Zrotation Xrotation Yrotation
                  End Site
                  {
                    OFFSET 1.62519 -0.234802 1.16502
                  }
                }
              }
              JOINT lMid1
              {
                OFFSET 8.24714 1.18213 3.41376
                CHANNELS 3 Zrotation Xrotation Yrotation
                JOINT lMid2
                {
                  OFFSET 3.10165 -0.590103 1.0647
                  CHANNELS 3 Zrotation Xrotation Yrotation
                  End Site
                  {
                    OFFSET 2.48547 -0.328903 0.83742
                  }
                }
              }
              JOINT lRing1
              {
                OFFSET 8.82822 0.546677 1.51678
                CHANNELS 3 Zrotation Xrotation Yrotation
                JOINT lRing2
                {
                  OFFSET 2.60934 -0.819778 -0.0198488
                  CHANNELS 3 Zrotation Xrotation Yrotation
                  End Site
                  {
                    OFFSET 2.33842 -0.294052 0.168128
                  }
                }
              }
              JOINT lPinky1
              {
                OFFSET 8.27202 -0.0477905 -0.4584
                CHANNELS 3 Zrotation Xrotation Yrotation
                JOINT lPinky2
                {
                  OFFSET 1.82734 -0.647385 -0.700984
                  CHANNELS 3 Zrotation Xrotation Yrotation
                  End Site
                  {
                    OFFSET 1.69225 -0.51767 -0.607171
                  }
                }
              }
            }
          }
        }
      }
    }
  }
  JOINT rButtock
  {
    OFFSET -8.77824 4.35084 1.2192
    CHANNELS 3 Zrotation Xrotation Yrotation
    JOINT rThigh
    {
      OFFSET 0 -1.70687 -2.19456
      CHANNELS 3 Zrotation Xrotation Yrotation
      JOINT rShin
      {
        OFFSET 0 -36.8199 0.73152
        CHANNELS 3 Zrotation Xrotation Yrotation
        JOINT rFoot
        {
          OFFSET 0.73152 -45.1104 -5.12064
          CHANNELS 3 Zrotation Xrotation Yrotation
          End Site
          {
            OFFSET -1.1221 -3.69964 12.103
          }
        }
      }
    }
  }
  JOINT lButtock
  {
    OFFSET 8.77824 4.35084 1.2192
    CHANNELS 3 Zrotation Xrotation Yrotation
    JOINT lThigh
    {
      OFFSET 0 -1.70687 -2.19456
      CHANNELS 3 Zrotation Xrotation Yrotation
      JOINT lShin
      {
        OFFSET 0 -36.8199 0.73152
        CHANNELS 3 Zrotation Xrotation Yrotation
        JOINT lFoot
        {
          OFFSET -0.73152 -45.1104 -5.12064
          CHANNELS 3 Zrotation Xrotation Yrotation
          End Site
          {
            OFFSET 1.1221 -3.69964 12.103
          }
        }
      }
    }
  }
}
MOTION
Frames:	8
Frame Time:	0.03333
0.0 0.0 0.0 0.0 0.0 0.0 0.0 0.0 0.0 0.0 0.0 0.0 0.0 0.0 0.0 0.0 0.0 0.0 0.0 0.0 0.0 0.0 0.0 0.0 0.0 0.0 0.0 0.0 0.0 0.0 0.0 0.0 0.0 0.0 0.0 0.0 0.0 0.0 0.0 0.0 0.0 0.0 0.0 0.0 0.0 0.0 0.0 0.0 0.0 0.0 0.0 0.0 0.0 0.0 0.0 0.0 0.0 0.0 0.0 0.0 0.0 0.0 0.0 0.0 0.0 0.0 0.0 0.0 0.0 0.0 0.0 0.0 0.0 0.0 0.0 0.0 0.0 0.0 0.0 0.0 0.0 0.0 0.0 0.0 0.0 0.0 0.0 0.0 0.0 0.0 0.0 0.0 0.0 0.0 0.0 0.0 0.0 0.0 0.0 0.0 0.0 0.0 0.0 0.0 0.0 0.0 0.0 0.0 0.0 0.0 0.0 0.0 0.0 0.0 0.0 0.0 0.0 0.0 0.0 0.0 0.0 0.0 0.0 0.0 0.0 0.0 0.0 0.0 0.0 0.0 0.0 0.0
2.3369 56.9205 -0.41989999999999994 -38.446453 72.562213 -28.243568 1.783293 6.770915 -3.061217 2.187005 -8.892272 23.384993 0.138732 10.249128 25.312804 -7.086765 -21.506488 -36.953617 -0.000223 -0.0 0.003336 -0.000223 -0.0 0.003336 -1.954997 10.315619 2.4841 -138.985741 -35.797031 141.879882 -122.991166 48.101662 -109.189578 3.112312 7.625786 3.577072 -158.890183 3.338734 88.644451 108.190453 -57.270937 75.485569 -19.789466 24.672142 13.871445 -2.092336 14.483762 2.446172 -5.183205 13.746967 3.279437 116.117943 -78.304518 85.991813 -145.096626 -1.768171 -178.573618 1.674707 -46.917914 -19.10626 -54.701217 -50.44893 -53.374162 -165.859762 69.291362 -147.286794 -3.995644 -37.755929 7.275394 109.428692 -17.653209 148.232877 144.525229 11.839852 88.036744 -1.873468 -9.02269 0.137859 -110.924917 -50.643499 -53.190845 121.710345 31.190638 -77.845514 -101.020256 -76.182939 -51.003751 -165.128778 -57.931018 -97.430047 155.962324 6.964662 -140.624796 158.436878 8.886897 -140.973601 145.062581 -3.272449 178.097202 -12.403501 44.359632 3.902082 2.375907 -5.849347 2.21002 151.898838 28.295657 147.062325 -179.999939 75.749348 -6e-05 145.661972 79.72317 4.802365 -33.802347 41.857807 -5.810848 125.46474 -1.011537 -13.001933 -179.890213 75.749891 -0.087893 -158.886863 -1.574834 91.068127 80.004606 6.365088 -126.19822 -165.079685 -68.298926 -66.526372
3.7774 57.6623 -0.5171 -44.077914 74.918735 -34.473502 0.787703 6.786283 -3.716855 2.723888 -8.692975 24.919505 -5.163146 29.934235 -154.833656 11.874845 41.468204 138.704418 -0.002524 -0.0 0.000231 0.003089 -0.0 -0.000536 -155.154998 -1.295822 161.360869 -33.419558 21.176331 -8.680177 -2.135613 -22.215215 -146.75098 147.163749 -45.494204 133.09602 -171.438836 -9.122116 89.951011 -170.329936 -8.13009 89.669377 -94.409312 39.959065 79.514552 -129.336716 36.866971 98.694622 -173.868663 -46.102381 144.719269 9.959101 -20.721386 -1.194077 0.003783 0.459457 0.144559 8.497632 18.849127 2.629121 2.316322 6.383617 2.121374 -13.86428 -31.061612 -14.843029 114.316349 63.102942 -117.833522 70.392683 18.822091 -80.509168 -162.104012 0.047787 81.873471 18.988168 44.384985 -6.04279 168.940596 -6.620826 -89.908704 -101.953777 -63.815153 -75.732193 164.101697 -39.833587 -122.514155 138.639476 23.134691 -112.526837 7.620309 19.224103 -5.044845 173.760591 -35.983809 -143.726799 -0.002886 0.19196 -0.059167 155.534589 -2.679793 -172.173286 -9.25346 29.731674 -8.067938 60.232946 -54.2743 59.622685 -0.009695 -0.000577 -0.006446 -5.75574 3.038973 -59.759602 -53.49081 35.395067 146.145404 -57.785225 72.128717 -22.109148 -179.984794 75.749708 -0.010401 -159.449986 0.625402 -89.732133 -78.522002 -5.356307 63.340856 -15.74075 -37.727542 49.398405
5.0201 58.418499999999995 -0.5769 -50.777446 77.103386 -41.785008 0.217323 2.112616 -159.717456 -0.49763 4.410679 -178.856761 -0.276146 30.316671 177.6169 -6.83659 42.200585 170.035285 0.003628 -0.0 -0.002144 -0.002088 0.0 -0.001765 2.227726 -16.103912 -3.271617 54.201308 9.448002 9.906569 177.810747 -0.810887 32.384289 155.532553 -34.114061 140.579761 -20.485284 18.147021 6.326035 -22.025085 14.11879 28.026447 -115.101708 30.017647 97.374263 -160.728298 -4.980899 116.394252 -166.720604 -25.948502 145.181501 12.785233 -28.648493 -1.048509 -145.110991 -0.687369 -178.912772 12.105204 34.367148 -5.107292 -5.939172 -13.432601 -5.578752 -119.153542 -39.17367 -118.152032 158.35675 -28.579737 -166.65056 -143.885439 -17.842509 170.258457 33.034077 -53.620817 -66.411341 1.442051 -1.01951 0.869489 178.423311 -15.970944 -89.488034 135.666346 13.755781 -69.327499 -75.752277 -73.958926 -28.576939 2.993445 28.593928 -3.340788 167.6758 -28.939935 -145.298491 -8.085317 -14.880859 0.981979 145.107774 -1.054069 178.797641 153.543903 -16.72101 176.839287 3.829706 -9.105423 3.579078 2.682039 -13.132346 4.712459 -0.00017 0.000356 -0.000641 -6.352535 -0.783017 -83.138254 -76.771995 7.487211 -40.664683 35.31568 -22.991468 144.428047 179.980766 75.749738 0.012924 -164.379275 2.94822 92.449214 77.303287 -2.308063 -76.423699 73.738848 -2.906458 -9.490115
6.535100000000001 59.0037 -0.5789 -60.182137 79.158014 -51.759732 -1.085367 2.434234 -141.673458 0.991103 4.204755 163.035847 -13.263886 19.478332 -67.57069 35.821789 3.640327 49.671293 0.00039 -0.0 -0.000863 0.000643 0.0 0.004606 -146.238208 32.688529 150.904183 -41.105587 14.281692 19.928291 167.632709 -16.836315 -71.654605 -24.422847 67.170151 14.766312 179.178501 -18.239594 89.134727 -148.25196 9.379853 79.623072 -118.209396 27.710565 99.930416 8.78575 -3.542951 -7.795471 -96.144656 59.967224 87.324408 136.991649 -75.97316 105.541916 -0.103515 -4.936206 -1.556222 11.955671 -35.610827 -4.315898 18.062092 63.131766 12.964709 -141.82149 -6.479302 -137.745014 152.794673 11.201565 -158.356948 59.515954 18.908069 -28.459376 51.990202 -2.026257 147.106988 -111.579778 -71.063996 -94.109583 8.618672 8.22878 -1.92561 80.900323 19.543986 -75.59151 -177.014535 -61.25001 -114.953774 -10.866303 8.580888 7.026763 147.352738 26.017427 -134.366908 165.250871 -11.088643 -143.55033 0.00177 -0.226137 0.071217 156.190601 -16.051548 -173.747135 21.723805 -34.882721 20.86276 26.25831 -43.005465 27.62198 -179.999105 75.750185 -0.001508 156.486483 69.225247 -14.723973 -62.040292 63.655762 144.966814 -2.646212 -45.21079 -83.262334 179.982484 75.74919 0.012567 -166.78888 5.151422 98.040295 79.021701 -11.400244 -36.441514 -58.678395 11.52083 -14.744003
8.2652 59.861799999999995 -0.5733 -73.842752 80.586044 -66.187912 -3.062503 6.247177 -40.19923 6.358655 -4.111276 61.533597 -13.257292 23.649186 -88.411108 37.36574 15.744441 65.082339 0.003476 -0.0 -0.002542 -0.002433 0.0 -0.0023 -153.348382 8.597095 159.035239 -33.857789 3.533632 2.688697 -11.737344 5.331169 -145.274255 135.384815 -54.765432 122.365604 -20.68775 18.298963 6.416355 107.801087 -73.509147 33.510584 176.309939 -61.759449 114.514195 -23.908124 46.668575 16.524131 -166.090268 -23.946407 145.072486 -17.222252 40.844894 13.940586 -0.013413 -1.154913 -0.363666 -28.294594 -85.621349 -49.702572 11.456123 38.274725 9.726213 -0.207566 -5.236468 -1.946831 -4.207384 -43.369236 8.368789 -88.491974 46.5468 52.768251 -34.964604 -12.254733 -107.667682 25.140392 51.905721 -10.425056 172.833092 -10.510213 -89.926688 143.19086 8.566369 -73.341413 2.808438 4.412396 -1.660021 -10.473922 0.900084 0.400163 154.251111 11.367384 -139.502652 2.397994 15.230387 -3.15891 -0.005959 1.678087 -0.528613 156.566928 -22.888696 -174.534645 38.029367 -45.472535 36.896983 69.309796 -54.553967 69.953569 -9.1e-05 -0.000102 5e-06 -11.324584 -12.537665 163.489219 85.974515 -77.422214 -161.432945 5.937229 -65.127913 95.738442 -179.999809 75.749744 -0.000224 -166.829336 7.261898 -123.436884 -81.338946 -41.618465 -23.410407 -105.302973 54.08903 -172.031639
10.1427 60.9568 -0.4679 -90.533727 81.351452 -83.845092 -3.972167 4.295464 -105.229523 4.182018 2.817546 125.530354 8.041703 20.626453 91.075768 -33.430014 4.000645 -111.420873 -0.003309 0.0 -0.000432 -0.003309 0.0 -0.000432 -10.695448 37.012884 12.324412 -110.05089 22.293308 132.266581 -176.514378 -1.200592 -69.069072 -10.076032 46.051895 4.627672 165.743403 -29.63106 85.478549 -101.44591 23.992636 44.259158 7.76922 -13.533331 -3.720439 -3.026943 20.84409 5.23169 -36.132427 51.776156 29.92158 -13.704137 37.002808 11.101574 -145.092692 -1.933175 -178.522095 10.529735 67.652441 0.555129 -171.924981 82.808856 -145.147832 0.089902 -3.279478 -2.296888 39.970639 -86.05221 61.50046 80.095316 -42.74308 84.184371 -81.335094 -23.844091 100.79691 162.229297 48.484672 -135.878026 14.856823 13.68624 -4.012896 -15.858722 -16.151032 1.266454 -160.288974 -69.754896 -102.910465 -176.260367 -52.156675 -106.781509 149.225286 22.508548 -135.839963 112.258869 59.516071 -102.820987 145.11641 -0.19581 179.066239 -12.139606 38.977947 4.57569 150.250512 29.779499 146.104237 164.321439 59.466112 146.441108 179.997472 75.750677 0.002419 155.517797 54.428588 172.787895 109.784852 -63.256692 -152.767491 82.482268 67.92069 13.96143 179.982175 75.751744 0.014313 -168.312861 10.922686 -100.438485 -73.275342 -16.175973 46.137151 3.303102 -34.777406 72.399465
12.2279 62.1936 -0.255 -105.358207 80.805411 -99.782629 -5.215108 4.943839 -108.600192 3.87278 3.224816 128.011588 8.058903 25.193908 114.665805 -34.346476 17.480779 -132.111436 -0.000642 0.0 -0.000484 -0.000347 0.0 -0.000403 -154.20318 4.216648 160.110168 152.610022 -15.556949 173.638236 126.315168 46.714332 67.268175 174.345761 10.237264 149.738532 -24.4591 21.008218 8.174267 -2.208041 1.631634 14.818843 -49.068012 40.483192 38.852513 5.971388 1.01055 -2.569298 14.888735 -44.843733 -2.748647 -2.406662 14.975958 2.770645 -145.118906 0.395818 -179.25274 11.895459 29.641037 -5.634566 -140.212454 -1.968603 -137.312054 -1.342721 -9.125002 -5.126334 1.779128 9.486844 -2.26862 112.798456 -3.246025 -174.174774 -171.113416 8.664056 85.699718 13.908605 36.415314 -3.123183 -36.074057 -32.600678 -5.417788 143.234169 -78.797805 -155.740834 160.251973 -33.42719 -122.70482 3.434311 28.11132 1.758332 165.15043 -20.929485 -144.866207 158.000348 10.306656 -140.691983 145.105044 -1.212027 178.747971 150.471366 -34.134343 173.281886 -13.226061 45.278066 -10.907393 -7.37924 17.583377 -4.138797 -0.013921 0.001226 -0.012227 -18.295199 -22.264371 17.3573 109.629335 47.531322 -16.951079 -118.206187 -69.043071 155.491245 -179.921919 75.750353 -0.061505 -169.586028 14.498286 -105.763219 -78.383543 -23.055058 -24.750715 103.317044 -23.051599 179.617649
